<svg id="Capa_1" enable-background="new 0 0 512 512" height="512" viewBox="0 0 512 512" width="512" xmlns="http://www.w3.org/2000/svg"><g><path d="m256.214 0c-88.892-.116-161.324 72.219-161.323 161.111.001 59.093 31.821 110.747 79.258 138.782 8.423 4.978 13.522 14.102 13.522 23.887v39.242c1.559-.652 3.27-1.014 5.065-1.014h126.528c1.796 0 3.506.362 5.065 1.014v-39.243c0-9.9 5.289-18.997 13.802-24.051 47.282-28.074 78.977-79.64 78.977-138.618.001-88.908-72.014-160.994-160.894-161.11z" fill="#ffe181"/><g><path d="m230.251 323.78c0-9.784-5.098-18.909-13.522-23.887-47.437-28.036-79.257-79.689-79.258-138.782-.001-81.616 61.062-149.265 139.86-159.705-6.911-.914-13.958-1.396-21.116-1.406-88.892-.116-161.325 72.218-161.324 161.111.001 59.093 31.821 110.747 79.258 138.782 8.424 4.978 13.522 14.103 13.522 23.887v39.242c1.559-.652 3.27-1.014 5.065-1.014h37.515z" fill="#fec458"/></g><g><path d="m276.179 369.734c-4.267 0-7.726-3.459-7.726-7.726v-69.146c0-6.949 2.34-13.804 6.587-19.304l11.056-14.314c2.169-2.809 3.364-6.309 3.364-9.858v-72.16c0-4.267 3.459-7.726 7.726-7.726s7.726 3.459 7.726 7.726v72.16c0 6.949-2.34 13.804-6.587 19.304l-11.056 14.314c-2.17 2.809-3.364 6.309-3.364 9.858v69.146c0 4.267-3.459 7.726-7.726 7.726z" fill="#ffb640"/></g><g><path d="m235.821 369.734c-4.267 0-7.726-3.459-7.726-7.726v-69.146c0-3.548-1.195-7.049-3.364-9.858l-11.057-14.314c-4.247-5.499-6.587-12.355-6.587-19.304v-72.16c0-4.267 3.459-7.726 7.726-7.726s7.726 3.459 7.726 7.726v72.16c0 3.549 1.195 7.049 3.364 9.857l11.057 14.314c4.248 5.5 6.587 12.356 6.587 19.304v69.146c0 4.268-3.459 7.727-7.726 7.727z" fill="#ffb640"/></g><g><path d="m368.389 129.564c-8.361-31.157-29.841-57.209-58.933-71.474-3.831-1.879-5.414-6.508-3.536-10.338 1.878-3.831 6.509-5.413 10.338-3.536 33.097 16.229 57.538 45.878 67.055 81.343 1.106 4.121-1.339 8.359-5.46 9.465-4.118 1.106-8.358-1.336-9.464-5.46z" fill="#ffeac8"/></g><path d="m224.799 475.139v5.66c0 17.16 14.04 31.201 31.2 31.201 17.16 0 31.2-14.04 31.2-31.201v-5.66z" fill="#8479c2"/><path d="m252.729 480.799v-5.66h-27.93v5.66c0 17.16 14.04 31.201 31.2 31.201 5.013 0 9.756-1.205 13.965-3.33-10.196-5.147-17.235-15.724-17.235-27.871z" fill="#6e60b8"/><g><path d="m304.909 193.521h-97.819c-4.267 0-7.726-3.459-7.726-7.726s3.459-7.726 7.726-7.726h97.819c4.267 0 7.726 3.459 7.726 7.726s-3.459 7.726-7.726 7.726z" fill="#fec458"/></g><g><path d="m57.415 164.711h-26.579c-4.267 0-7.726-3.459-7.726-7.726s3.459-7.726 7.726-7.726h26.579c4.267 0 7.726 3.459 7.726 7.726 0 4.266-3.459 7.726-7.726 7.726z" fill="#fec458"/></g><g><path d="m65 115.681-24.85-9.431c-3.989-1.514-5.996-5.976-4.482-9.965 1.515-3.989 5.975-5.994 9.965-4.482l24.85 9.431c3.989 1.514 5.996 5.976 4.482 9.965-1.513 3.986-5.971 5.995-9.965 4.482z" fill="#fec458"/></g><g><path d="m35.668 217.684c-1.514-3.989.493-8.451 4.482-9.965l24.85-9.431c3.987-1.514 8.451.492 9.965 4.482 1.514 3.989-.493 8.451-4.482 9.965l-24.85 9.431c-3.99 1.514-8.45-.492-9.965-4.482z" fill="#fec458"/></g><g><path d="m481.164 164.711h-26.579c-4.267 0-7.726-3.459-7.726-7.726s3.459-7.726 7.726-7.726h26.579c4.267 0 7.726 3.459 7.726 7.726 0 4.266-3.459 7.726-7.726 7.726z" fill="#fec458"/></g><g><path d="m437.034 111.198c-1.514-3.989.493-8.451 4.482-9.965l24.85-9.431c3.987-1.513 8.451.492 9.965 4.482 1.514 3.989-.493 8.451-4.482 9.965l-24.849 9.432c-3.991 1.513-8.451-.493-9.966-4.483z" fill="#fec458"/></g><g><path d="m466.367 222.167-24.85-9.431c-3.989-1.514-5.996-5.976-4.482-9.965 1.515-3.989 5.975-5.996 9.965-4.482l24.85 9.431c3.989 1.514 5.996 5.976 4.482 9.965-1.514 3.986-5.972 5.995-9.965 4.482z" fill="#fec458"/></g><path d="m308.968 437.171h-105.936c-7.393 0-13.407 6.014-13.407 13.406v11.412c0 7.392 6.014 13.406 13.407 13.406h105.937c7.392 0 13.406-6.014 13.406-13.406v-11.412c0-7.392-6.014-13.406-13.407-13.406z" fill="#efecef"/><path d="m308.968 456.284h-105.936c-6.054 0-11.178-4.036-12.837-9.556-.367 1.221-.57 2.512-.57 3.85v11.412c0 7.392 6.014 13.406 13.407 13.406h105.937c7.392 0 13.406-6.014 13.406-13.406v-11.412c0-1.339-.203-2.63-.57-3.85-1.659 5.52-6.783 9.556-12.837 9.556z" fill="#e2dfe2"/><path d="m319.264 399.461h-126.529c-7.392 0-13.406 6.014-13.406 13.406v11.412c0 7.393 6.014 13.407 13.406 13.407h126.529c7.393 0 13.407-6.014 13.407-13.407v-11.412c0-7.392-6.014-13.406-13.407-13.406z" fill="#efecef"/><path d="m319.264 418.574h-126.529c-6.054 0-11.178-4.036-12.837-9.557-.367 1.221-.57 2.512-.57 3.85v11.412c0 7.393 6.014 13.407 13.406 13.407h126.529c7.393 0 13.407-6.014 13.407-13.407v-11.412c0-1.339-.203-2.629-.57-3.85-1.658 5.521-6.782 9.557-12.836 9.557z" fill="#e2dfe2"/><path d="m319.264 361.75h-126.529c-7.392 0-13.406 6.014-13.406 13.407v11.412c0 7.392 6.014 13.406 13.406 13.406h126.529c7.393 0 13.407-6.014 13.407-13.406v-11.412c0-7.393-6.014-13.407-13.407-13.407z" fill="#efecef"/><path d="m319.264 380.863h-126.529c-6.054 0-11.178-4.036-12.837-9.556-.367 1.221-.57 2.512-.57 3.85v11.412c0 7.392 6.014 13.406 13.406 13.406h126.529c7.393 0 13.407-6.014 13.407-13.406v-11.412c0-1.339-.203-2.63-.57-3.85-1.658 5.52-6.782 9.556-12.836 9.556z" fill="#e2dfe2"/></g></svg>